<svg xmlns="http://www.w3.org/2000/svg" xmlns:xlink="http://www.w3.org/1999/xlink" width="1500" zoomAndPan="magnify" viewBox="0 0 1125 1124.99995" height="1500" preserveAspectRatio="xMidYMid meet" version="1.0"><defs><g/><clipPath id="00df051625"><path d="M 11.433594 10.5 L 1112.433594 10.5 L 1112.433594 1111.5 L 11.433594 1111.5 Z M 11.433594 10.5 " clip-rule="nonzero"/></clipPath><clipPath id="38c6ac6fb3"><path d="M 291.269531 142 L 512 142 L 512 633 L 291.269531 633 Z M 291.269531 142 " clip-rule="nonzero"/></clipPath></defs><path fill="#000000" d="M 1125 1000 C 1125 1069.03125 1069.03125 1125 1000 1125 L 125 1125 C 55.96875 1125 0 1069.03125 0 1000 L 0 125 C 0 55.96875 55.96875 0 125 0 L 1000 0 C 1069.03125 0 1125 55.96875 1125 125 Z M 1125 1000 " fill-opacity="1" fill-rule="nonzero"/><g clip-path="url(#00df051625)"><path fill="#ffffff" d="M 1112.433594 989.167969 C 1112.433594 1056.726562 1057.660156 1111.5 990.101562 1111.5 L 133.765625 1111.5 C 66.207031 1111.5 11.433594 1056.726562 11.433594 989.167969 L 11.433594 132.832031 C 11.433594 65.273438 66.207031 10.5 133.765625 10.5 L 990.101562 10.5 C 1057.660156 10.5 1112.433594 65.273438 1112.433594 132.832031 Z M 1112.433594 989.167969 " fill-opacity="1" fill-rule="nonzero"/></g><g clip-path="url(#38c6ac6fb3)"><path fill="#000000" d="M 502.050781 632.699219 C 502.46875 632.699219 502.886719 632.699219 503.308594 632.699219 C 507.496094 632.699219 510.851562 629.761719 511.6875 625.570312 C 512.527344 620.957031 509.171875 616.765625 504.5625 615.925781 C 392.257812 599.992188 308.03125 501.878906 308.03125 387.828125 C 308.03125 273.78125 392.679688 175.246094 504.5625 159.734375 C 509.171875 158.894531 512.105469 154.703125 511.6875 150.089844 C 510.851562 145.476562 506.660156 142.125 502.46875 142.960938 C 381.78125 159.734375 291.269531 264.976562 291.269531 387.828125 C 291.269531 510.265625 381.78125 615.507812 502.050781 632.699219 Z M 502.050781 632.699219 " fill-opacity="1" fill-rule="nonzero"/></g><path fill="#000000" d="M 642.851562 264.558594 C 643.6875 264.976562 644.527344 264.976562 644.945312 264.976562 C 648.71875 264.976562 652.070312 262.460938 652.90625 258.6875 C 664.222656 219.273438 651.230469 201.664062 620.640625 179.441406 C 597.59375 163.085938 610.164062 125.351562 610.582031 124.933594 C 612.261719 120.738281 609.746094 115.707031 605.554688 114.449219 C 601.363281 112.773438 596.335938 115.289062 595.078125 119.480469 C 594.242188 121.578125 578.316406 169.378906 611.421875 193.277344 C 638.660156 212.984375 645.785156 223.886719 637.402344 254.074219 C 635.726562 258.6875 638.660156 263.300781 642.851562 264.558594 Z M 642.851562 264.558594 " fill-opacity="1" fill-rule="nonzero"/><path fill="#000000" d="M 608.90625 310.679688 C 609.746094 311.097656 611.003906 311.097656 611.839844 311.097656 C 615.191406 311.097656 618.125 309.003906 619.382812 305.648438 C 624.832031 292.230469 628.601562 262.878906 604.71875 246.109375 C 585.023438 232.269531 590.886719 205.015625 591.308594 203.757812 C 592.144531 199.148438 589.632812 194.953125 585.023438 193.695312 C 580.414062 192.4375 576.222656 195.375 574.964844 199.984375 C 574.546875 201.664062 566.164062 239.398438 595.078125 259.945312 C 613.9375 273.363281 604.296875 298.519531 603.878906 299.359375 C 602.621094 303.972656 604.71875 308.582031 608.90625 310.679688 Z M 608.90625 310.679688 " fill-opacity="1" fill-rule="nonzero"/><path fill="#000000" d="M 376.335938 380.28125 L 334.847656 380.28125 C 330.238281 380.28125 326.46875 384.054688 326.46875 388.667969 C 326.46875 393.28125 330.238281 397.054688 334.847656 397.054688 L 376.335938 397.054688 C 380.945312 397.054688 384.714844 393.28125 384.714844 388.667969 C 384.714844 384.054688 380.945312 380.28125 376.335938 380.28125 Z M 376.335938 380.28125 " fill-opacity="1" fill-rule="nonzero"/><path fill="#000000" d="M 429.136719 268.75 L 399.800781 238.980469 C 396.449219 235.625 391.421875 235.625 388.070312 238.980469 C 384.714844 242.335938 384.714844 247.367188 388.070312 250.71875 L 417.402344 280.492188 C 419.078125 282.167969 421.171875 283.007812 423.269531 283.007812 C 425.363281 283.007812 427.460938 282.167969 429.136719 280.492188 C 432.488281 277.136719 432.488281 271.683594 429.136719 268.75 Z M 429.136719 268.75 " fill-opacity="1" fill-rule="nonzero"/><path fill="#000000" d="M 417.402344 496.847656 L 388.070312 526.617188 C 384.714844 529.96875 384.714844 535.003906 388.070312 538.355469 C 389.746094 540.035156 391.839844 540.871094 393.933594 540.871094 C 396.03125 540.871094 398.125 540.035156 399.800781 538.355469 L 429.136719 508.585938 C 432.488281 505.230469 432.488281 500.199219 429.136719 496.847656 C 425.78125 493.492188 420.753906 493.492188 417.402344 496.847656 Z M 417.402344 496.847656 " fill-opacity="1" fill-rule="nonzero"/><path fill="#000000" d="M 528.03125 423.890625 L 528.03125 642.339844 C 528.03125 646.953125 531.800781 650.726562 536.410156 650.726562 C 541.019531 650.726562 544.792969 646.953125 544.792969 642.339844 L 544.792969 122.417969 C 544.792969 117.804688 541.019531 114.03125 536.410156 114.03125 C 531.800781 114.03125 528.03125 117.804688 528.03125 122.417969 L 528.03125 349.253906 C 522.164062 350.09375 517.136719 352.609375 512.527344 355.964844 L 451.34375 302.714844 C 447.992188 299.777344 442.542969 300.195312 439.613281 303.550781 C 436.679688 306.90625 437.097656 312.355469 440.449219 315.292969 L 502.46875 369.378906 C 499.953125 374.414062 498.699219 380.28125 498.699219 386.570312 C 498.699219 392.441406 499.953125 397.894531 502.050781 402.503906 L 470.621094 438.5625 C 467.6875 441.917969 468.105469 447.371094 471.460938 450.304688 C 473.136719 451.5625 474.8125 452.402344 476.90625 452.402344 C 479.421875 452.402344 481.515625 451.5625 483.191406 449.464844 L 511.6875 416.339844 C 516.714844 420.535156 522.164062 423.050781 528.03125 423.890625 Z M 528.03125 366.445312 L 528.03125 407.117188 C 520.90625 405.019531 515.460938 396.636719 515.460938 386.992188 C 515.878906 376.929688 520.90625 368.542969 528.03125 366.445312 Z M 528.03125 366.445312 " fill-opacity="1" fill-rule="nonzero"/><path fill="#000000" d="M 369.628906 327.03125 C 370.46875 327.453125 371.726562 327.453125 372.5625 327.453125 C 375.914062 327.453125 378.847656 325.355469 380.105469 322 C 381.78125 317.808594 379.6875 312.777344 375.496094 311.097656 L 361.667969 305.648438 C 357.476562 303.972656 352.449219 306.066406 350.773438 310.261719 C 349.097656 314.453125 351.191406 319.484375 355.382812 321.160156 Z M 369.628906 327.03125 " fill-opacity="1" fill-rule="nonzero"/><path fill="#000000" d="M 372.144531 456.59375 L 358.316406 462.464844 C 354.125 464.140625 352.03125 469.171875 354.125 473.367188 C 355.382812 476.71875 358.734375 478.398438 361.667969 478.398438 C 362.925781 478.398438 363.761719 477.976562 365.019531 477.558594 L 378.847656 471.6875 C 383.039062 470.011719 385.136719 464.980469 383.039062 460.785156 C 381.363281 456.59375 376.335938 454.917969 372.144531 456.59375 Z M 372.144531 456.59375 " fill-opacity="1" fill-rule="nonzero"/><path fill="#000000" d="M 471.460938 561.835938 L 466.011719 575.671875 C 464.335938 579.867188 466.429688 584.898438 470.621094 586.574219 C 471.460938 586.996094 472.714844 586.996094 473.554688 586.996094 C 476.90625 586.996094 479.839844 584.898438 481.097656 581.542969 L 486.546875 567.707031 C 488.222656 563.515625 486.125 558.484375 481.933594 556.804688 C 477.746094 555.128906 473.136719 557.644531 471.460938 561.835938 Z M 471.460938 561.835938 " fill-opacity="1" fill-rule="nonzero"/><path fill="#000000" d="M 472.714844 223.046875 C 473.972656 223.046875 474.8125 222.628906 476.070312 222.207031 C 480.257812 220.53125 482.355469 215.5 480.257812 211.308594 L 474.394531 197.890625 C 472.714844 193.695312 467.6875 191.601562 463.496094 193.695312 C 459.308594 195.375 457.210938 200.40625 459.308594 204.597656 L 465.171875 218.433594 C 466.429688 221.371094 469.363281 223.046875 472.714844 223.046875 Z M 472.714844 223.046875 " fill-opacity="1" fill-rule="nonzero"/><path fill="#000000" d="M 585.859375 273.78125 C 585.441406 273.363281 585.023438 273.363281 585.023438 272.941406 C 577.058594 272.523438 569.097656 272.105469 561.554688 271.683594 L 561.554688 288.457031 C 571.613281 288.875 580.832031 289.296875 590.050781 290.132812 C 590.886719 285.523438 591.726562 277.972656 585.859375 273.78125 Z M 585.859375 273.78125 " fill-opacity="1" fill-rule="nonzero"/><path fill="#000000" d="M 823.460938 407.535156 C 833.519531 377.765625 824.71875 352.609375 799.992188 340.867188 C 780.296875 331.226562 752.222656 332.484375 731.6875 346.320312 C 732.109375 336.675781 732.109375 326.613281 732.109375 326.195312 C 732.109375 302.292969 690.621094 287.617188 640.335938 279.652344 C 640.753906 285.523438 640.335938 291.390625 639.5 296.421875 C 688.945312 304.808594 715.347656 318.226562 715.347656 326.195312 C 715.347656 326.613281 715.347656 327.03125 714.925781 327.453125 C 709.898438 341.707031 654.164062 360.574219 561.136719 363.511719 L 561.136719 380.28125 C 622.316406 378.1875 684.753906 368.542969 714.089844 350.511719 C 713.667969 357.222656 712.832031 365.1875 711.15625 373.992188 C 704.03125 380.703125 688.109375 387.410156 666.738281 392.441406 C 638.242188 399.152344 601.363281 403.761719 561.554688 405.019531 L 561.554688 421.792969 C 603.039062 420.535156 641.175781 415.921875 670.925781 408.375 C 685.59375 404.601562 697.746094 400.410156 707.382812 395.796875 C 700.679688 425.566406 688.527344 461.625 666.316406 496.425781 C 664.640625 498.941406 662.964844 501.457031 661.289062 503.972656 C 650.8125 518.648438 639.5 532.488281 626.507812 544.644531 C 612.679688 557.644531 594.242188 565.191406 575.382812 565.191406 L 561.554688 565.191406 L 561.554688 581.964844 L 575.382812 581.964844 C 598.851562 581.964844 621.058594 573.15625 638.242188 556.804688 C 650.394531 545.066406 661.707031 532.066406 671.765625 518.230469 C 733.363281 530.390625 761.441406 548 761.441406 561 C 761.441406 582.382812 686.011719 611.734375 561.972656 615.085938 L 561.972656 631.859375 C 670.925781 628.503906 778.203125 604.1875 778.203125 561 C 778.203125 531.648438 730.011719 514.457031 690.621094 505.230469 C 726.660156 493.074219 805.441406 462.042969 823.460938 407.535156 Z M 691.460938 486.363281 C 714.507812 444.015625 724.566406 401.667969 728.753906 371.898438 C 742.585938 350.933594 773.59375 346.320312 792.449219 355.542969 C 802.089844 360.15625 817.175781 372.734375 807.535156 402.085938 C 793.289062 446.113281 727.5 474.203125 691.460938 486.363281 Z M 691.460938 486.363281 " fill-opacity="1" fill-rule="nonzero"/><g fill="#172d38" fill-opacity="1"><g transform="translate(227.241246, 852.248693)"><g><path d="M 11.21875 -112.125 L 64.234375 -112.125 C 76.828125 -112.125 86.832031 -109.585938 94.25 -104.515625 C 101.675781 -99.441406 105.390625 -92.632812 105.390625 -84.09375 C 105.390625 -78.21875 103.679688 -73.0625 100.265625 -68.625 C 96.847656 -64.195312 92.148438 -61.128906 86.171875 -59.421875 C 93.222656 -58.035156 98.828125 -54.78125 102.984375 -49.65625 C 107.148438 -44.53125 109.234375 -38.335938 109.234375 -31.078125 C 109.234375 -21.566406 105.363281 -14.007812 97.625 -8.40625 C 89.882812 -2.800781 79.394531 0 66.15625 0 L 11.21875 0 Z M 39.5625 -90.34375 L 39.5625 -67.265625 L 62.625 -67.265625 C 66.789062 -67.265625 70.097656 -68.304688 72.546875 -70.390625 C 75.003906 -72.472656 76.234375 -75.332031 76.234375 -78.96875 C 76.234375 -82.488281 75.003906 -85.265625 72.546875 -87.296875 C 70.097656 -89.328125 66.789062 -90.34375 62.625 -90.34375 Z M 39.5625 -46.765625 L 39.5625 -21.9375 L 62.625 -21.9375 C 67.96875 -21.9375 72.160156 -23.054688 75.203125 -25.296875 C 78.242188 -27.546875 79.765625 -30.644531 79.765625 -34.59375 C 79.765625 -38.332031 78.242188 -41.296875 75.203125 -43.484375 C 72.160156 -45.671875 67.96875 -46.765625 62.625 -46.765625 Z M 39.5625 -46.765625 "/></g></g></g><g fill="#172d38" fill-opacity="1"><g transform="translate(341.733661, 852.248693)"><g><path d="M 38.765625 -86.328125 L 38.765625 -71.75 C 44.847656 -82.113281 54.191406 -87.398438 66.796875 -87.609375 L 66.796875 -62.625 C 58.890625 -63.375 52.425781 -62.066406 47.40625 -58.703125 C 42.394531 -55.335938 39.515625 -50.5625 38.765625 -44.375 L 38.765625 0 L 11.046875 0 L 11.046875 -86.328125 Z M 38.765625 -86.328125 "/></g></g></g><g fill="#172d38" fill-opacity="1"><g transform="translate(410.108789, 852.248693)"><g><path d="M 48.859375 -87.296875 C 63.804688 -87.296875 75.039062 -82.703125 82.5625 -73.515625 C 90.09375 -64.335938 93.378906 -51.738281 92.421875 -35.71875 L 31.71875 -35.71875 C 33.101562 -30.59375 35.554688 -26.640625 39.078125 -23.859375 C 42.609375 -21.085938 46.9375 -19.703125 52.0625 -19.703125 C 59.957031 -19.703125 66.84375 -22.640625 72.71875 -28.515625 L 87.296875 -14.25 C 78.003906 -4.101562 65.457031 0.96875 49.65625 0.96875 C 35.664062 0.96875 24.53125 -3.035156 16.25 -11.046875 C 7.976562 -19.054688 3.84375 -29.679688 3.84375 -42.921875 C 3.84375 -56.273438 7.976562 -67.007812 16.25 -75.125 C 24.53125 -83.238281 35.398438 -87.296875 48.859375 -87.296875 Z M 31.234375 -50.609375 L 65.828125 -50.609375 C 65.828125 -55.847656 64.304688 -60.066406 61.265625 -63.265625 C 58.222656 -66.472656 54.191406 -68.078125 49.171875 -68.078125 C 44.472656 -68.078125 40.519531 -66.5 37.3125 -63.34375 C 34.113281 -60.195312 32.085938 -55.953125 31.234375 -50.609375 Z M 31.234375 -50.609375 "/></g></g></g><g fill="#172d38" fill-opacity="1"><g transform="translate(506.506485, 852.248693)"><g><path d="M 49.8125 -87.609375 C 61.664062 -87.609375 70.875 -84.859375 77.4375 -79.359375 C 84.007812 -73.859375 87.347656 -66.195312 87.453125 -56.375 L 87.453125 0 L 60.390625 0 L 60.390625 -9.9375 C 54.722656 -2.457031 45.910156 1.28125 33.953125 1.28125 C 24.878906 1.28125 17.671875 -1.226562 12.328125 -6.25 C 6.992188 -11.269531 4.328125 -17.78125 4.328125 -25.78125 C 4.328125 -34.007812 7.179688 -40.390625 12.890625 -44.921875 C 18.609375 -49.460938 26.804688 -51.785156 37.484375 -51.890625 L 60.21875 -51.890625 L 60.21875 -53.171875 C 60.21875 -57.441406 58.800781 -60.78125 55.96875 -63.1875 C 53.144531 -65.59375 48.957031 -66.796875 43.40625 -66.796875 C 35.613281 -66.796875 27.019531 -64.390625 17.625 -59.578125 L 9.765625 -77.84375 C 23.753906 -84.351562 37.101562 -87.609375 49.8125 -87.609375 Z M 42.453125 -17.453125 C 46.828125 -17.453125 50.664062 -18.546875 53.96875 -20.734375 C 57.28125 -22.929688 59.363281 -25.789062 60.21875 -29.3125 L 60.21875 -37 L 42.765625 -37 C 34.429688 -37 30.265625 -33.898438 30.265625 -27.703125 C 30.265625 -24.503906 31.332031 -21.992188 33.46875 -20.171875 C 35.601562 -18.359375 38.597656 -17.453125 42.453125 -17.453125 Z M 42.453125 -17.453125 "/></g></g></g><g fill="#172d38" fill-opacity="1"><g transform="translate(602.583927, 852.248693)"><g><path d="M 48.859375 -33.3125 L 39.5625 -23.546875 L 39.5625 0 L 11.859375 0 L 11.859375 -118.84375 L 39.5625 -118.84375 L 39.5625 -56.0625 L 68.078125 -86.328125 L 99.46875 -86.328125 L 67.75 -53.171875 L 100.421875 0 L 67.59375 0 Z M 48.859375 -33.3125 "/></g></g></g><g fill="#172d38" fill-opacity="1"><g transform="translate(703.465333, 852.248693)"><g/></g></g><g fill="#172d38" fill-opacity="1"><g transform="translate(740.615365, 852.248693)"><g><path d="M 39.71875 0 L 11.21875 0 L 11.21875 -112.125 L 39.71875 -112.125 Z M 39.71875 0 "/></g></g></g><g fill="#172d38" fill-opacity="1"><g transform="translate(791.536448, 852.248693)"><g><path d="M 67.59375 -87.609375 C 77.09375 -87.609375 84.722656 -84.59375 90.484375 -78.5625 C 96.253906 -72.53125 99.140625 -64.492188 99.140625 -54.453125 L 99.140625 0 L 71.59375 0 L 71.59375 -46.765625 C 71.59375 -51.785156 70.226562 -55.765625 67.5 -58.703125 C 64.78125 -61.640625 61.070312 -63.109375 56.375 -63.109375 C 51.46875 -63.109375 47.4375 -61.503906 44.28125 -58.296875 C 41.132812 -55.097656 39.296875 -50.882812 38.765625 -45.65625 L 38.765625 0 L 11.046875 0 L 11.046875 -86.328125 L 38.765625 -86.328125 L 38.765625 -72.234375 C 44.847656 -82.273438 54.457031 -87.398438 67.59375 -87.609375 Z M 67.59375 -87.609375 "/></g></g></g></svg>